<?xml version="1.0" encoding="UTF-8" standalone="no"?>
<svg width="32px" height="31px" viewBox="0 0 32 31" version="1.1" xmlns="http://www.w3.org/2000/svg" xmlns:xlink="http://www.w3.org/1999/xlink" xmlns:sketch="http://www.bohemiancoding.com/sketch/ns">
    <title>star-inactive</title>
    <description>Created with Sketch (http://www.bohemiancoding.com/sketch)</description>
    <defs></defs>
    <g id="Page-1" stroke="none" stroke-width="1" fill="none" fill-rule="evenodd" sketch:type="MSPage">
        <path d="M29.0002174,9.3 L21.7213457,9.3 L18.7725464,1.91683333 C18.3100386,0.7567875 17.2150203,0 16,0 C14.7849797,0 13.6899614,0.7567875 13.2262036,1.91683333 L10.2786543,9.3 L2.99978264,9.3 C1.71226111,9.3 0.568491991,10.148625 0.157235115,11.4105833 C-0.254021761,12.67125 0.159735157,14.0622458 1.18475229,14.8682458 L7.40610631,19.7546208 L5.24107011,26.9827875 C4.86231378,28.2473292 5.30232114,29.6217917 6.33733844,30.4031208 C7.37110573,31.1834167 8.77112914,31.2002083 9.82239671,30.4431625 L16,25.9947917 L22.1776033,30.4431625 C22.6938619,30.8151625 23.293872,31 23.892632,31 C24.5151424,31 25.1364028,30.8010833 25.6626616,30.4031208 C26.6976789,29.6217917 27.1376862,28.2473292 26.7589299,26.9827875 L24.5938937,19.7546208 L30.8152477,14.8682458 C31.8402648,14.0622458 32.2540218,12.67125 31.8427649,11.4105833 C31.431508,10.148625 30.2877389,9.3 29.0002174,9.3 Z" id="Fill-84" fill="#2C2F3D" sketch:type="MSShapeGroup"></path>
    </g>
</svg>